<svg xmlns="http://www.w3.org/2000/svg" viewBox="0 0 89.31 108.48"><defs><style>.cls-1{fill:#fff;}.cls-2{stroke:#000;stroke-width:2px;}.cls-2,.cls-3{stroke-miterlimit:10;}.cls-3{stroke:#fff;stroke-width:3.5px;}</style></defs><g id="Layer_2" data-name="Layer 2"><g id="Layer_1-2" data-name="Layer 1"><path class="cls-1" d="M20,8.22,37.8,1.88,56.27,3.5l16.8,8.84s10.8,13.54,11,14.05,2.57,30.69,2.57,30.69V93.59L82.7,97.72s-13.41.38-13.92.38a61.77,61.77,0,0,1-5.66-2.5l-2.4,1.08v11.76H22.18L21.12,73.71l-9.6-10.1-8-14.06V32.39L9.64,18.16Z"/><path class="cls-2" d="M88.31,52.55V42.21A41.26,41.26,0,0,0,47.1,1H40.58A39.58,39.58,0,0,0,20.84,74.88l-.07,32.59h2.5V95.39l0-8.34V84.56l0-9.3H42.58a11.79,11.79,0,0,1,10.85,7.16l3.79,8.85A11.37,11.37,0,0,0,60,95.2v12.27h2.5V96.9a11.21,11.21,0,0,0,5,1.2h12.7a8.06,8.06,0,0,0,8-8V52m-2.5.5V78.73H79.47v2.5h6.34v8.83a5.54,5.54,0,0,1-5.55,5.54H67.57a8.76,8.76,0,0,1-8.06-5.31l-3.78-8.85a14.29,14.29,0,0,0-13.15-8.67H22.16A37.09,37.09,0,0,1,40.58,3.5H47.1A38.75,38.75,0,0,1,85.81,42.21V53.09"/><path class="cls-3" d="M35.77,68.34A15.8,15.8,0,0,0,50.58,58l1.61-4.43,2.43,7.3A11,11,0,0,0,76,57.34v-9H68v9a3,3,0,0,1-5.79.94L56.59,41.44l9.87-27.12-7.8-2L52.52,29.23,50.45,23A15.62,15.62,0,0,0,20,28V52.58A15.78,15.78,0,0,0,35.77,68.34ZM28,28a7.62,7.62,0,0,1,14.85-2.41l5.26,15.79L43.06,55.23a7.76,7.76,0,0,1-15-2.65Z"/><rect x="20.14" y="97.72" width="17.66" height="3.87"/><path class="cls-1" d="M37.37,104.17A4.16,4.16,0,1,1,41.53,100,4.17,4.17,0,0,1,37.37,104.17Z"/><path d="M37.37,97.6A2.41,2.41,0,1,1,35,100a2.4,2.4,0,0,1,2.41-2.41m0-3.5A5.91,5.91,0,1,0,43.28,100a5.92,5.92,0,0,0-5.91-5.91Z"/><rect x="20.14" y="83.68" width="17.66" height="3.87"/><path class="cls-1" d="M37.37,90.11A4.16,4.16,0,1,1,41.53,86,4.17,4.17,0,0,1,37.37,90.11Z"/><path d="M37.37,83.54A2.41,2.41,0,1,1,35,86a2.41,2.41,0,0,1,2.41-2.41m0-3.5A5.91,5.91,0,1,0,43.28,86,5.92,5.92,0,0,0,37.37,80Z"/></g></g></svg>