<svg xmlns:dc="http://purl.org/dc/elements/1.1/" xmlns:cc="http://creativecommons.org/ns#" xmlns:rdf="http://www.w3.org/1999/02/22-rdf-syntax-ns#" xmlns:svg="http://www.w3.org/2000/svg" xmlns="http://www.w3.org/2000/svg" xmlns:xlink="http://www.w3.org/1999/xlink" id="svg232812" viewBox="0 0 1024 768" height="768px" width="1024px" version="1.1">
  <metadata id="metadata232818">
    <rdf:rdf>
      <cc:work rdf:about="">
        <dc:format>image/svg+xml</dc:format>
        <dc:type rdf:resource="http://purl.org/dc/dcmitype/StillImage"></dc:type>
      </cc:work>
    </rdf:rdf>
  </metadata>
  <defs id="defs232816"></defs>
  <linearGradient spreadMethod="pad" y2="30%" x2="-10%" y1="120%" x1="30%" id="3d_gradient2-logo-56e8d82a-9ac4-4975-99a9-ea00ed2a0edd">
    <stop id="stop232793" stop-opacity="1" stop-color="#ffffff" offset="0%"></stop>
    <stop id="stop232795" stop-opacity="1" stop-color="#000000" offset="100%"></stop>
  </linearGradient>
  <linearGradient gradientTransform="rotate(-30)" spreadMethod="pad" y2="30%" x2="-10%" y1="120%" x1="30%" id="3d_gradient3-logo-56e8d82a-9ac4-4975-99a9-ea00ed2a0edd">
    <stop id="stop232798" stop-opacity="1" stop-color="#ffffff" offset="0%"></stop>
    <stop id="stop232800" stop-opacity="1" stop-color="#cccccc" offset="50%"></stop>
    <stop id="stop232802" stop-opacity="1" stop-color="#000000" offset="100%"></stop>
  </linearGradient>
  <g id="logo-group">
    <image xlink:href="" id="container" x="272" y="144" width="480" height="480" style="display: none;" transform="translate(0 0)"></image>
    <g id="logo-center" transform="translate(0 0)">
      <image xlink:href="" id="icon_container" style="display: none;" x="0" y="0"></image>
      <g id="slogan" style="font-style:normal;font-weight:300;font-size:32px;line-height:1;font-family:'Open Sans';font-variant-ligatures:none;text-align:center;text-anchor:middle" transform="translate(0 0)">
        <path id="path232820" style="font-style:normal;font-weight:300;font-size:32px;line-height:1;font-family:'Open Sans';font-variant-ligatures:none;text-align:center;text-anchor:middle" d="m 370.6875,0 -6.5625,-16.984375 h 1.59375 l 4.39062,11.546875 q 0.875,2.21875 1.3125,3.875 h 0.0937 q 0.64063,-2.125 1.3125,-3.90625 l 4.39063,-11.515625 h 1.59375 L 372.25,0 Z" stroke-width="0" stroke-linejoin="miter" stroke-miterlimit="2" fill="#80c4ee" stroke="#80c4ee" transform="translate(0 358.65281625) translate(381.666875 61.2365625) scale(0.78) translate(-364.125 16.984375)"></path>
        <path id="path232822" style="font-style:normal;font-weight:300;font-size:32px;line-height:1;font-family:'Open Sans';font-variant-ligatures:none;text-align:center;text-anchor:middle" d="m 388.51562,0.3125 q -3.70312,0 -5.78125,-2.28125 -2.0625,-2.28125 -2.0625,-6.390625 0,-4.0625 2,-6.5 2,-2.453125 5.39063,-2.453125 3,0 4.73437,2.09375 1.73438,2.09375 1.73438,5.6875 v 1.25 h -12.23438 q 0.0312,3.5 1.625,5.34375 1.60938,1.84375 4.59375,1.84375 1.45313,0 2.54688,-0.203125 1.10937,-0.203125 2.79687,-0.875 v 1.40625 q -1.4375,0.625 -2.65625,0.84375 -1.21875,0.234375 -2.6875,0.234375 z m -0.45312,-16.25 q -2.45313,0 -3.9375,1.625 -1.48438,1.609375 -1.73438,4.65625 h 10.5 q 0,-2.953125 -1.28125,-4.609375 -1.28125,-1.671875 -3.54687,-1.671875 z" stroke-width="0" stroke-linejoin="miter" stroke-miterlimit="2" fill="#80c4ee" stroke="#80c4ee" transform="translate(0 358.65281625) translate(396.1334336 60.980625) scale(0.78) translate(-380.67187 17.3125)"></path>
        <path id="path232824" style="font-style:normal;font-weight:300;font-size:32px;line-height:1;font-family:'Open Sans';font-variant-ligatures:none;text-align:center;text-anchor:middle" d="m 405.90625,-17.3125 q 1.07812,0 2.3125,0.21875 l -0.29688,1.484375 q -1.0625,-0.265625 -2.20312,-0.265625 -2.17188,0 -3.5625,1.84375 -1.39063,1.84375 -1.39063,4.65625 V 0 h -1.54687 v -16.984375 h 1.3125 l 0.15625,3.0625 h 0.10937 q 1.04688,-1.875 2.23438,-2.625 1.1875,-0.765625 2.875,-0.765625 z" stroke-width="0" stroke-linejoin="miter" stroke-miterlimit="2" fill="#80c4ee" stroke="#80c4ee" transform="translate(0 358.65281625) translate(412.15999999999997 60.980625) scale(0.78) translate(-399.21875 17.3125)"></path>
        <path id="path232826" style="font-style:normal;font-weight:300;font-size:32px;line-height:1;font-family:'Open Sans';font-variant-ligatures:none;text-align:center;text-anchor:middle" d="m 413.20312,0 h -1.54687 v -16.984375 h 1.54687 z m -1.76562,-21.703125 q 0,-1.5 0.98437,-1.5 0.48438,0 0.75,0.390625 0.28125,0.390625 0.28125,1.109375 0,0.703125 -0.28125,1.109375 -0.26562,0.40625 -0.75,0.40625 -0.98437,0 -0.98437,-1.515625 z" stroke-width="0" stroke-linejoin="miter" stroke-miterlimit="2" fill="#80c4ee" stroke="#80c4ee" transform="translate(0 358.65281625) translate(423.25062499999996 56.3859375) scale(0.78) translate(-411.4375 23.203125)"></path>
        <path id="path232828" style="font-style:normal;font-weight:300;font-size:32px;line-height:1;font-family:'Open Sans';font-variant-ligatures:none;text-align:center;text-anchor:middle" d="m 425.21875,-15.640625 h -4 V 0 h -1.54688 v -15.640625 h -3.15625 v -0.90625 l 3.15625,-0.578125 v -1.3125 q 0,-3.125 1.14063,-4.578125 1.15625,-1.46875 3.76562,-1.46875 1.40625,0 2.8125,0.421875 l -0.35937,1.34375 q -1.25,-0.390625 -2.48438,-0.390625 -1.8125,0 -2.57812,1.078125 -0.75,1.0625 -0.75,3.46875 v 1.578125 h 4 z" stroke-width="0" stroke-linejoin="miter" stroke-miterlimit="2" fill="#80c4ee" stroke="#80c4ee" transform="translate(0 358.65281625) translate(428.7715586 55.3865625) scale(0.78) translate(-416.51562 24.484375)"></path>
        <path id="path232830" style="font-style:normal;font-weight:300;font-size:32px;line-height:1;font-family:'Open Sans';font-variant-ligatures:none;text-align:center;text-anchor:middle" d="m 430.07812,0 h -1.54687 v -16.984375 h 1.54687 z m -1.76562,-21.703125 q 0,-1.5 0.98437,-1.5 0.48438,0 0.75,0.390625 0.28125,0.390625 0.28125,1.109375 0,0.703125 -0.28125,1.109375 -0.26562,0.40625 -0.75,0.40625 -0.98437,0 -0.98437,-1.515625 z" stroke-width="0" stroke-linejoin="miter" stroke-miterlimit="2" fill="#80c4ee" stroke="#80c4ee" transform="translate(0 358.65281625) translate(439.533125 56.3859375) scale(0.78) translate(-428.3125 23.203125)"></path>
        <path id="path232832" style="font-style:normal;font-weight:300;font-size:32px;line-height:1;font-family:'Open Sans';font-variant-ligatures:none;text-align:center;text-anchor:middle" d="m 446.09375,0 -0.39063,-2.6875 h -0.125 q -1.28125,1.640625 -2.64062,2.328125 -1.34375,0.671875 -3.1875,0.671875 -2.5,0 -3.89063,-1.28125 -1.39062,-1.28125 -1.39062,-3.546875 0,-2.484375 2.0625,-3.859375 2.07812,-1.375 6,-1.453125 l 3.23437,-0.09375 v -1.125 q 0,-2.421875 -0.98437,-3.65625 -0.98438,-1.234375 -3.17188,-1.234375 -2.35937,0 -4.89062,1.3125 l -0.57813,-1.34375 q 2.79688,-1.3125 5.53125,-1.3125 2.79688,0 4.17188,1.453125 1.39062,1.453125 1.39062,4.53125 V 0 Z m -6.25,-1.09375 q 2.71875,0 4.28125,-1.546875 1.57812,-1.5625 1.57812,-4.328125 v -1.671875 l -2.96875,0.125 q -3.57812,0.171875 -5.10937,1.125 -1.51563,0.9375 -1.51563,2.9375 0,1.59375 0.96875,2.484375 0.98438,0.875 2.76563,0.875 z" stroke-width="0" stroke-linejoin="miter" stroke-miterlimit="2" fill="#80c4ee" stroke="#80c4ee" transform="translate(0 358.65281625) translate(445.895 61.004999999999995) scale(0.78) translate(-434.46875 17.28125)"></path>
        <path id="path232834" style="font-style:normal;font-weight:300;font-size:32px;line-height:1;font-family:'Open Sans';font-variant-ligatures:none;text-align:center;text-anchor:middle" d="m 459.89062,-17.3125 q 3.5625,0 5.35938,2.25 1.8125,2.234375 1.8125,6.546875 0,4.234375 -1.90625,6.53125 -1.89063,2.296875 -5.32813,2.296875 -1.8125,0 -3.26562,-0.75 -1.45313,-0.75 -2.29688,-2.125 H 454.125 L 453.6875,0 h -0.96875 v -24.3125 h 1.54687 v 6.109375 q 0,1.375 -0.0625,2.53125 l -0.0469,1.328125 h 0.10937 q 0.96875,-1.53125 2.32813,-2.25 1.375,-0.71875 3.29687,-0.71875 z m -0.0312,1.40625 q -3,0 -4.29687,1.71875 -1.29688,1.71875 -1.29688,5.671875 V -8.25 q 0,3.84375 1.34375,5.515625 1.35938,1.671875 4.21875,1.671875 2.78125,0 4.1875,-1.9375 1.40625,-1.953125 1.40625,-5.546875 0,-7.359375 -5.5625,-7.359375 z" stroke-width="0" stroke-linejoin="miter" stroke-miterlimit="2" fill="#80c4ee" stroke="#80c4ee" transform="translate(0 358.65281625) translate(461.69 55.520624999999995) scale(0.78) translate(-452.71875 24.3125)"></path>
        <path id="path232836" style="font-style:normal;font-weight:300;font-size:32px;line-height:1;font-family:'Open Sans';font-variant-ligatures:none;text-align:center;text-anchor:middle" d="m 473.32812,0 h -1.54687 v -24.3125 h 1.54687 z" stroke-width="0" stroke-linejoin="miter" stroke-miterlimit="2" fill="#80c4ee" stroke="#80c4ee" transform="translate(0 358.65281625) translate(478.11875000000003 55.520624999999995) scale(0.78) translate(-471.78125 24.3125)"></path>
        <path id="path232838" style="font-style:normal;font-weight:300;font-size:32px;line-height:1;font-family:'Open Sans';font-variant-ligatures:none;text-align:center;text-anchor:middle" d="m 485.89062,0.3125 q -3.70312,0 -5.78125,-2.28125 -2.0625,-2.28125 -2.0625,-6.390625 0,-4.0625 2,-6.5 2,-2.453125 5.39063,-2.453125 3,0 4.73437,2.09375 1.73438,2.09375 1.73438,5.6875 v 1.25 h -12.23438 q 0.0312,3.5 1.625,5.34375 1.60938,1.84375 4.59375,1.84375 1.45313,0 2.54688,-0.203125 1.10937,-0.203125 2.79687,-0.875 v 1.40625 q -1.4375,0.625 -2.65625,0.84375 -1.21875,0.234375 -2.6875,0.234375 z m -0.45312,-16.25 q -2.45313,0 -3.9375,1.625 -1.48438,1.609375 -1.73438,4.65625 h 10.5 q 0,-2.953125 -1.28125,-4.609375 -1.28125,-1.671875 -3.54687,-1.671875 z" stroke-width="0" stroke-linejoin="miter" stroke-miterlimit="2" fill="#80c4ee" stroke="#80c4ee" transform="translate(0 358.65281625) translate(484.56593360000005 60.980625) scale(0.78) translate(-478.04687 17.3125)"></path>
        <path id="path232840" style="font-style:normal;font-weight:300;font-size:32px;line-height:1;font-family:'Open Sans';font-variant-ligatures:none;text-align:center;text-anchor:middle" d="m 511.6875,0.3125 q -3.64063,0 -5.70313,-2.296875 -2.0625,-2.296875 -2.0625,-6.40625 0,-4.21875 2.14063,-6.5625 2.14062,-2.359375 5.85937,-2.359375 2.20313,0 4.21875,0.765625 l -0.42187,1.375 q -2.20313,-0.734375 -3.82813,-0.734375 -3.125,0 -4.73437,1.9375 -1.60938,1.921875 -1.60938,5.546875 0,3.4375 1.60938,5.390625 1.60937,1.9375 4.5,1.9375 2.3125,0 4.29687,-0.828125 v 1.4375 Q 514.32812,0.3125 511.6875,0.3125 Z" stroke-width="0" stroke-linejoin="miter" stroke-miterlimit="2" fill="#80c4ee" stroke="#80c4ee" transform="translate(0 358.65281625) translate(506.30843360000006 60.980625) scale(0.78) translate(-503.92187 17.3125)"></path>
        <path id="path232842" style="font-style:normal;font-weight:300;font-size:32px;line-height:1;font-family:'Open Sans';font-variant-ligatures:none;text-align:center;text-anchor:middle" d="m 526.78125,-17.3125 q 1.07812,0 2.3125,0.21875 l -0.29688,1.484375 q -1.0625,-0.265625 -2.20312,-0.265625 -2.17188,0 -3.5625,1.84375 -1.39063,1.84375 -1.39063,4.65625 V 0 h -1.54687 v -16.984375 h 1.3125 l 0.15625,3.0625 h 0.10937 q 1.04688,-1.875 2.23438,-2.625 1.1875,-0.765625 2.875,-0.765625 z" stroke-width="0" stroke-linejoin="miter" stroke-miterlimit="2" fill="#80c4ee" stroke="#80c4ee" transform="translate(0 358.65281625) translate(520.4825000000001 60.980625) scale(0.78) translate(-520.09375 17.3125)"></path>
        <path id="path232844" style="font-style:normal;font-weight:300;font-size:32px;line-height:1;font-family:'Open Sans';font-variant-ligatures:none;text-align:center;text-anchor:middle" d="m 539.39062,0.3125 q -3.70312,0 -5.78125,-2.28125 -2.0625,-2.28125 -2.0625,-6.390625 0,-4.0625 2,-6.5 2,-2.453125 5.39063,-2.453125 3,0 4.73437,2.09375 1.73438,2.09375 1.73438,5.6875 v 1.25 h -12.23438 q 0.0312,3.5 1.625,5.34375 1.60938,1.84375 4.59375,1.84375 1.45313,0 2.54688,-0.203125 1.10937,-0.203125 2.79687,-0.875 v 1.40625 q -1.4375,0.625 -2.65625,0.84375 -1.21875,0.234375 -2.6875,0.234375 z m -0.45312,-16.25 q -2.45313,0 -3.9375,1.625 -1.48438,1.609375 -1.73438,4.65625 h 10.5 q 0,-2.953125 -1.28125,-4.609375 -1.28125,-1.671875 -3.54687,-1.671875 z" stroke-width="0" stroke-linejoin="miter" stroke-miterlimit="2" fill="#80c4ee" stroke="#80c4ee" transform="translate(0 358.65281625) translate(530.9759336000001 60.980625) scale(0.78) translate(-531.54687 17.3125)"></path>
        <path id="path232846" style="font-style:normal;font-weight:300;font-size:32px;line-height:1;font-family:'Open Sans';font-variant-ligatures:none;text-align:center;text-anchor:middle" d="m 556.3125,-17.3125 q 1.84375,0 3.1875,0.671875 1.34375,0.671875 2.40625,2.296875 H 562 q -0.0937,-1.96875 -0.0937,-3.859375 V -24.3125 h 1.53125 V 0 h -1.01563 l -0.39062,-2.59375 h -0.125 q -1.9375,2.90625 -5.5625,2.90625 -3.51563,0 -5.375,-2.1875 -1.85938,-2.1875 -1.85938,-6.375 0,-4.40625 1.84375,-6.734375 1.84375,-2.328125 5.35938,-2.328125 z m 0,1.40625 q -2.78125,0 -4.1875,1.953125 -1.39063,1.953125 -1.39063,5.671875 0,7.21875 5.60938,7.21875 2.875,0 4.21875,-1.671875 1.34375,-1.671875 1.34375,-5.515625 v -0.265625 q 0,-3.9375 -1.32813,-5.65625 -1.3125,-1.734375 -4.26562,-1.734375 z" stroke-width="0" stroke-linejoin="miter" stroke-miterlimit="2" fill="#80c4ee" stroke="#80c4ee" transform="translate(0 358.65281625) translate(546.2347226 55.520624999999995) scale(0.78) translate(-549.10942 24.3125)"></path>
        <path id="path232848" style="font-style:normal;font-weight:300;font-size:32px;line-height:1;font-family:'Open Sans';font-variant-ligatures:none;text-align:center;text-anchor:middle" d="m 576.01562,0.3125 q -3.70312,0 -5.78125,-2.28125 -2.0625,-2.28125 -2.0625,-6.390625 0,-4.0625 2,-6.5 2,-2.453125 5.39063,-2.453125 3,0 4.73437,2.09375 1.73438,2.09375 1.73438,5.6875 v 1.25 h -12.23438 q 0.0312,3.5 1.625,5.34375 1.60938,1.84375 4.59375,1.84375 1.45313,0 2.54688,-0.203125 1.10937,-0.203125 2.79687,-0.875 v 1.40625 q -1.4375,0.625 -2.65625,0.84375 -1.21875,0.234375 -2.6875,0.234375 z m -0.45312,-16.25 q -2.45313,0 -3.9375,1.625 -1.48438,1.609375 -1.73438,4.65625 h 10.5 q 0,-2.953125 -1.28125,-4.609375 -1.28125,-1.671875 -3.54687,-1.671875 z" stroke-width="0" stroke-linejoin="miter" stroke-miterlimit="2" fill="#80c4ee" stroke="#80c4ee" transform="translate(0 358.65281625) translate(562.6634336000001 60.980625) scale(0.78) translate(-568.17187 17.3125)"></path>
        <path id="path232850" style="font-style:normal;font-weight:300;font-size:32px;line-height:1;font-family:'Open Sans';font-variant-ligatures:none;text-align:center;text-anchor:middle" d="m 598.5625,0 v -11.015625 q 0,-2.5625 -1.07813,-3.71875 -1.07812,-1.171875 -3.34375,-1.171875 -3.04687,0 -4.46875,1.546875 -1.40625,1.53125 -1.40625,4.984375 V 0 h -1.54687 v -16.984375 h 1.3125 l 0.29687,2.328125 h 0.0937 q 1.65625,-2.65625 5.89063,-2.65625 5.78125,0 5.78125,6.203125 V 0 Z" stroke-width="0" stroke-linejoin="miter" stroke-miterlimit="2" fill="#80c4ee" stroke="#80c4ee" transform="translate(0 358.65281625) translate(578.69 60.980625) scale(0.78) translate(-586.71875 17.3125)"></path>
        <path id="path232852" style="font-style:normal;font-weight:300;font-size:32px;line-height:1;font-family:'Open Sans';font-variant-ligatures:none;text-align:center;text-anchor:middle" d="m 610.07812,-1.0625 q 1.46875,0 2.5625,-0.25 v 1.25 q -1.125,0.375 -2.59375,0.375 -2.25,0 -3.32812,-1.203125 -1.0625,-1.203125 -1.0625,-3.78125 v -10.96875 h -2.51563 v -0.90625 l 2.51563,-0.703125 0.78125,-3.84375 h 0.79687 v 4.109375 h 4.98438 v 1.34375 h -4.98438 v 10.75 q 0,1.953125 0.6875,2.890625 0.6875,0.9375 2.15625,0.9375 z" stroke-width="0" stroke-linejoin="miter" stroke-miterlimit="2" fill="#80c4ee" stroke="#80c4ee" transform="translate(0 358.65281625) translate(593.0590586000001 58.03125) scale(0.78) translate(-603.14062 21.09375)"></path>
        <path id="path232854" style="font-style:normal;font-weight:300;font-size:32px;line-height:1;font-family:'Open Sans';font-variant-ligatures:none;text-align:center;text-anchor:middle" d="m 617.89062,0 h -1.54687 v -16.984375 h 1.54687 z M 616.125,-21.703125 q 0,-1.5 0.98437,-1.5 0.48438,0 0.75,0.390625 0.28125,0.390625 0.28125,1.109375 0,0.703125 -0.28125,1.109375 -0.26562,0.40625 -0.75,0.40625 -0.98437,0 -0.98437,-1.515625 z" stroke-width="0" stroke-linejoin="miter" stroke-miterlimit="2" fill="#80c4ee" stroke="#80c4ee" transform="translate(0 358.65281625) translate(604.746875 56.3859375) scale(0.78) translate(-616.125 23.203125)"></path>
        <path id="path232856" style="font-style:normal;font-weight:300;font-size:32px;line-height:1;font-family:'Open Sans';font-variant-ligatures:none;text-align:center;text-anchor:middle" d="m 633.90625,0 -0.39063,-2.6875 h -0.125 q -1.28125,1.640625 -2.64062,2.328125 -1.34375,0.671875 -3.1875,0.671875 -2.5,0 -3.89063,-1.28125 -1.39062,-1.28125 -1.39062,-3.546875 0,-2.484375 2.0625,-3.859375 2.07812,-1.375 6,-1.453125 l 3.23437,-0.09375 v -1.125 q 0,-2.421875 -0.98437,-3.65625 -0.98438,-1.234375 -3.17188,-1.234375 -2.35937,0 -4.89062,1.3125 l -0.57813,-1.34375 q 2.79688,-1.3125 5.53125,-1.3125 2.79688,0 4.17188,1.453125 1.39062,1.453125 1.39062,4.53125 V 0 Z m -6.25,-1.09375 q 2.71875,0 4.28125,-1.546875 1.57812,-1.5625 1.57812,-4.328125 v -1.671875 l -2.96875,0.125 q -3.57812,0.171875 -5.10937,1.125 -1.51563,0.9375 -1.51563,2.9375 0,1.59375 0.96875,2.484375 0.98438,0.875 2.76563,0.875 z" stroke-width="0" stroke-linejoin="miter" stroke-miterlimit="2" fill="#80c4ee" stroke="#80c4ee" transform="translate(0 358.65281625) translate(611.1087500000001 61.004999999999995) scale(0.78) translate(-622.28125 17.28125)"></path>
        <path id="path232858" style="font-style:normal;font-weight:300;font-size:32px;line-height:1;font-family:'Open Sans';font-variant-ligatures:none;text-align:center;text-anchor:middle" d="m 642.07812,0 h -1.54687 v -24.3125 h 1.54687 z" stroke-width="0" stroke-linejoin="miter" stroke-miterlimit="2" fill="#80c4ee" stroke="#80c4ee" transform="translate(0 358.65281625) translate(626.9037500000001 55.520624999999995) scale(0.78) translate(-640.53125 24.3125)"></path>
        <path id="path232860" style="font-style:normal;font-weight:300;font-size:32px;line-height:1;font-family:'Open Sans';font-variant-ligatures:none;text-align:center;text-anchor:middle" d="m 658.3125,-4.421875 q 0,2.28125 -1.73438,3.515625 -1.73437,1.21875 -4.92187,1.21875 -3.40625,0 -5.40625,-1.046875 V -2.40625 q 2.5625,1.28125 5.40625,1.28125 2.51562,0 3.8125,-0.828125 1.3125,-0.84375 1.3125,-2.234375 0,-1.28125 -1.04688,-2.15625 -1.03125,-0.875 -3.40625,-1.71875 -2.54687,-0.921875 -3.57812,-1.578125 -1.03125,-0.671875 -1.5625,-1.5 -0.51563,-0.84375 -0.51563,-2.046875 0,-1.90625 1.59375,-3.015625 1.60938,-1.109375 4.48438,-1.109375 2.75,0 5.21875,1.03125 l -0.57813,1.40625 q -2.5,-1.03125 -4.64062,-1.03125 -2.07813,0 -3.29688,0.6875 -1.21875,0.6875 -1.21875,1.90625 0,1.328125 0.9375,2.125 0.95313,0.796875 3.70313,1.78125 2.29687,0.828125 3.34375,1.5 1.04687,0.65625 1.5625,1.5 0.53125,0.84375 0.53125,1.984375 z" stroke-width="0" stroke-linejoin="miter" stroke-miterlimit="2" fill="#80c4ee" stroke="#80c4ee" transform="translate(0 358.65281625) translate(632.924375 60.980625) scale(0.78) translate(-646.25 17.3125)"></path>
      </g>
      <g id="title" style="font-style:normal;font-weight:300;font-size:72px;line-height:1;font-family:'Montserrat Light Alt1';font-variant-ligatures:none;text-align:center;text-anchor:middle" transform="translate(0 0)">
        <path id="path232863" style="font-style:normal;font-weight:300;font-size:72px;line-height:1;font-family:'Montserrat Light Alt1';font-variant-ligatures:none;text-align:center;text-anchor:middle" d="m 395.87019,-38.16 c -2.304,-3.816 -5.472,-6.768 -9.504,-9 -4.032,-2.16 -8.712,-3.24 -13.896,-3.24 h -19.944 v 3.312 h 19.656 c 4.608,0 8.712,0.936 12.312,2.808 3.528,1.872 6.264,4.464 8.208,7.704 1.872,3.312 2.88,7.128 2.88,11.376 0,4.32 -1.008,8.064 -2.88,11.376 -1.944,3.312 -4.68,5.904 -8.208,7.776 -3.6,1.872 -7.704,2.736 -12.312,2.736 h -15.984 V -25.2 h -3.672 V 0 h 19.944 c 5.184,0 9.864,-1.08 13.896,-3.24 4.032,-2.16 7.2,-5.112 9.504,-8.928 2.232,-3.816 3.384,-8.136 3.384,-13.032 0,-4.824 -1.152,-9.144 -3.384,-12.96 z" stroke-width="0" stroke-linejoin="miter" stroke-miterlimit="2" fill="#80c4ee" stroke="#80c4ee" transform="translate(0 290.49569875) translate(316.22853965 47.48) scale(1.11) translate(-352.52619 50.4)"></path>
        <path id="path232865" style="font-style:normal;font-weight:300;font-size:72px;line-height:1;font-family:'Montserrat Light Alt1';font-variant-ligatures:none;text-align:center;text-anchor:middle" d="M 410.85856,-37.584 V 0 h 3.6 v -37.584 z m -0.288,-9.936 c 0.576,0.576 1.224,0.792 2.088,0.792 0.792,0 1.512,-0.288 2.088,-0.864 0.576,-0.576 0.864,-1.224 0.864,-2.088 0,-0.792 -0.288,-1.44 -0.864,-2.016 -0.576,-0.576 -1.296,-0.864 -2.088,-0.864 -0.864,0 -1.512,0.288 -2.088,0.864 -0.576,0.576 -0.864,1.296 -0.864,2.088 0,0.864 0.288,1.512 0.864,2.088 z" stroke-width="0" stroke-linejoin="miter" stroke-miterlimit="2" fill="#91cbef" stroke="#91cbef" transform="translate(0 290.49569875) translate(384.13875035000007 45.08239999999999) scale(1.11) translate(-409.70656 52.56)"></path>
        <path id="path232867" style="font-style:normal;font-weight:300;font-size:72px;line-height:1;font-family:'Montserrat Light Alt1';font-variant-ligatures:none;text-align:center;text-anchor:middle" d="m 463.11031,-53.424 h -3.6 v 24.552 c -1.584,-2.808 -3.672,-5.04 -6.336,-6.624 -2.664,-1.584 -5.688,-2.376 -9,-2.376 -3.528,0 -6.696,0.864 -9.504,2.448 -2.88,1.584 -5.112,3.888 -6.696,6.768 -1.584,2.88 -2.376,6.192 -2.376,9.864 0,3.744 0.792,6.984 2.376,9.864 1.584,2.88 3.816,5.184 6.696,6.768 2.808,1.656 5.976,2.448 9.504,2.448 3.384,0 6.408,-0.792 9.144,-2.376 2.664,-1.584 4.752,-3.816 6.264,-6.768 V 0 h 3.528 z m -11.016,48.456 c -2.304,1.368 -4.824,2.016 -7.704,2.016 -2.88,0 -5.472,-0.648 -7.776,-2.016 -2.304,-1.296 -4.104,-3.168 -5.4,-5.616 -1.296,-2.376 -1.944,-5.112 -1.944,-8.208 0,-3.024 0.648,-5.76 1.944,-8.208 1.296,-2.376 3.096,-4.248 5.4,-5.616 2.304,-1.296 4.896,-2.016 7.776,-2.016 2.88,0 5.4,0.72 7.704,2.016 2.304,1.368 4.104,3.24 5.4,5.616 1.296,2.448 2.016,5.184 2.016,8.208 0,3.096 -0.72,5.832 -2.016,8.208 -1.296,2.448 -3.096,4.32 -5.4,5.616 z" stroke-width="0" stroke-linejoin="miter" stroke-miterlimit="2" fill="#a2d2f0" stroke="#a2d2f0" transform="translate(0 290.49569875) translate(406.2185928500001 44.12336) scale(1.11) translate(-425.59831 53.424)"></path>
        <path id="path232869" style="font-style:normal;font-weight:300;font-size:72px;line-height:1;font-family:'Montserrat Light Alt1';font-variant-ligatures:none;text-align:center;text-anchor:middle" d="m 516.50506,-50.4 h -3.672 L 489.64906,0 h 3.96 l 21.024,-46.368 21.096,46.368 h 3.96 z" stroke-width="0" stroke-linejoin="miter" stroke-miterlimit="2" fill="#b3d9f1" stroke="#b3d9f1" transform="translate(0 290.49569875) translate(481.7549253500001 47.48) scale(1.11) translate(-489.64906 50.4)"></path>
        <path id="path232871" style="font-style:normal;font-weight:300;font-size:72px;line-height:1;font-family:'Montserrat Light Alt1';font-variant-ligatures:none;text-align:center;text-anchor:middle" d="m 552.37681,-2.16 c 2.88,1.656 6.12,2.448 9.792,2.448 3.024,0 5.76,-0.576 8.208,-1.728 2.448,-1.152 4.464,-2.88 6.048,-5.184 l -2.664,-1.944 c -1.368,1.872 -3.024,3.312 -5.04,4.248 -2.016,0.936 -4.176,1.368 -6.552,1.368 -2.952,0 -5.616,-0.648 -7.92,-1.944 -2.304,-1.296 -4.176,-3.168 -5.472,-5.616 -1.296,-2.376 -1.944,-5.112 -1.944,-8.28 0,-3.096 0.648,-5.832 1.944,-8.28 1.296,-2.376 3.168,-4.248 5.472,-5.544 2.304,-1.296 4.968,-2.016 7.92,-2.016 2.376,0 4.536,0.504 6.552,1.44 2.016,0.936 3.672,2.304 5.04,4.176 l 2.664,-1.944 c -1.584,-2.232 -3.6,-3.96 -6.048,-5.112 -2.448,-1.152 -5.184,-1.8 -8.208,-1.8 -3.672,0 -6.912,0.864 -9.792,2.448 -2.88,1.584 -5.184,3.888 -6.768,6.768 -1.656,2.88 -2.448,6.192 -2.448,9.864 0,3.672 0.792,6.984 2.448,9.864 1.584,2.88 3.888,5.184 6.768,6.768 z" stroke-width="0" stroke-linejoin="miter" stroke-miterlimit="2" fill="#c3e1f3" stroke="#c3e1f3" transform="translate(0 290.49569875) translate(545.59296785 61.38607999999999) scale(1.11) translate(-543.16081 37.872)"></path>
        <path id="path232873" style="font-style:normal;font-weight:300;font-size:72px;line-height:1;font-family:'Montserrat Light Alt1';font-variant-ligatures:none;text-align:center;text-anchor:middle" d="m 606.27219,-2.376 -1.512,-2.52 c -1.584,1.44 -3.528,2.088 -5.832,2.088 -2.304,0 -4.104,-0.576 -5.256,-1.872 -1.152,-1.296 -1.728,-3.168 -1.728,-5.616 v -24.192 h 11.952 v -3.096 h -11.952 v -8.208 h -3.6 v 8.208 h -6.912 v 3.096 h 6.912 v 24.552 c 0,3.24 0.864,5.76 2.664,7.56 1.728,1.8 4.248,2.664 7.56,2.664 1.44,0 2.88,-0.216 4.248,-0.648 1.368,-0.432 2.52,-1.152 3.456,-2.016 z" stroke-width="0" stroke-linejoin="miter" stroke-miterlimit="2" fill="#d4e8f4" stroke="#d4e8f4" transform="translate(0 290.49569875) translate(592.51419965 52.594879999999996) scale(1.11) translate(-581.43219 45.792)"></path>
        <path id="path232875" style="font-style:normal;font-weight:300;font-size:72px;line-height:1;font-family:'Montserrat Light Alt1';font-variant-ligatures:none;text-align:center;text-anchor:middle" d="m 619.94544,-2.16 c 2.88,1.656 6.048,2.448 9.648,2.448 3.528,0 6.696,-0.792 9.576,-2.448 2.88,-1.584 5.112,-3.888 6.768,-6.768 1.584,-2.88 2.448,-6.192 2.448,-9.864 0,-3.6 -0.864,-6.912 -2.448,-9.792 -1.656,-2.88 -3.888,-5.184 -6.768,-6.84 -2.88,-1.584 -6.048,-2.448 -9.576,-2.448 -3.6,0 -6.768,0.864 -9.648,2.448 -2.88,1.656 -5.112,3.96 -6.696,6.84 -1.656,2.88 -2.448,6.192 -2.448,9.792 0,3.672 0.792,6.984 2.448,9.864 1.584,2.88 3.816,5.184 6.696,6.768 z m 17.352,-2.808 c -2.304,1.368 -4.824,2.016 -7.704,2.016 -2.88,0 -5.472,-0.648 -7.776,-2.016 -2.304,-1.296 -4.104,-3.168 -5.4,-5.616 -1.296,-2.376 -1.944,-5.112 -1.944,-8.208 0,-3.024 0.648,-5.76 1.944,-8.208 1.296,-2.376 3.096,-4.248 5.4,-5.616 2.304,-1.296 4.896,-2.016 7.776,-2.016 2.88,0 5.4,0.72 7.704,2.016 2.304,1.368 4.104,3.24 5.4,5.616 1.296,2.448 2.016,5.184 2.016,8.208 0,3.096 -0.72,5.832 -2.016,8.208 -1.296,2.448 -3.096,4.32 -5.4,5.616 z" stroke-width="0" stroke-linejoin="miter" stroke-miterlimit="2" fill="#e5eff5" stroke="#e5eff5" transform="translate(0 290.49569875) translate(629.5540671499999 61.38607999999999) scale(1.11) translate(-610.80144 37.872)"></path>
        <path id="path232877" style="font-style:normal;font-weight:300;font-size:72px;line-height:1;font-family:'Montserrat Light Alt1';font-variant-ligatures:none;text-align:center;text-anchor:middle" d="m 668.33956,-35.64 c -2.448,1.44 -4.248,3.528 -5.4,6.264 v -8.208 h -3.456 V 0 h 3.6 v -19.584 c 0,-4.608 1.152,-8.28 3.528,-10.872 2.304,-2.592 5.616,-3.96 9.792,-3.96 l 0.864,0.072 v -3.528 c -3.528,0 -6.48,0.792 -8.928,2.232 z" stroke-width="0" stroke-linejoin="miter" stroke-miterlimit="2" fill="#f6f6f6" stroke="#f6f6f6" transform="translate(0 290.49569875) translate(688.03122035 61.38607999999999) scale(1.11) translate(-659.48356 37.872)"></path>
      </g>
      <image xlink:href="" id="icon" style="display: none;" x="0" y="0"></image>
    </g>
  </g>
</svg>
